<svg version="1.1" id="Layer_1" xmlns="http://www.w3.org/2000/svg" xmlns:xlink="http://www.w3.org/1999/xlink" x="0px" y="0px"
	 width="100%" viewBox="0 0 500 500" enable-background="new 0 0 500 500" xml:space="preserve">
<path fill="#FFFFFF" opacity="1.000000" stroke="none" 
	d="
M227.000000,501.000000 
	C151.333359,501.000000 76.166702,501.000000 1.000040,501.000000 
	C1.000027,334.333405 1.000027,167.666779 1.000013,1.000130 
	C167.666565,1.000087 334.333130,1.000087 500.999756,1.000043 
	C500.999847,167.666534 500.999847,334.333069 500.999939,500.999817 
	C409.833344,501.000000 318.666656,501.000000 227.000000,501.000000 
M263.000610,162.859665 
	C263.000610,165.061295 263.000610,167.262939 263.000610,170.706421 
	C258.885193,166.158463 256.490936,166.554047 254.089874,170.996658 
	C251.059662,170.997147 248.029434,170.997635 244.556900,170.456635 
	C240.438141,169.110611 237.598175,167.280533 240.153915,162.145584 
	C240.496201,161.457886 238.117233,159.415787 236.900742,157.336243 
	C236.931152,156.890564 236.961563,156.444885 237.816315,155.995514 
	C238.863297,155.283997 240.845764,154.499222 240.796768,153.873505 
	C240.573898,151.027649 239.951950,148.162613 238.963943,145.493088 
	C238.845032,145.171814 235.628586,145.996948 232.943558,146.150864 
	C227.990417,146.155426 223.037277,146.159988 217.618576,145.560745 
	C213.572784,143.932541 211.863281,145.530121 212.428665,150.569168 
	C208.689682,148.825607 205.792282,146.580322 202.666718,146.197418 
	C195.487671,145.317963 188.199509,145.252304 180.950470,145.096100 
	C179.725098,145.069672 177.410492,146.233643 177.407135,146.857376 
	C177.385132,150.931244 177.861206,155.007828 178.108292,159.753372 
	C177.998550,160.187851 177.888809,160.622330 177.393158,161.360672 
	C177.175522,161.634369 177.081741,161.945511 177.162842,163.114151 
	C177.044113,164.754227 176.925385,166.394287 176.544815,168.201752 
	C176.347580,168.500931 176.413162,168.749847 176.837433,169.770523 
	C176.607910,172.517593 176.378387,175.264679 175.362503,178.012802 
	C173.907410,178.538101 172.452316,179.063385 170.992615,179.590347 
	C174.580887,188.883011 170.797333,195.197495 162.488113,194.750137 
	C162.014008,198.824585 161.198059,202.901886 161.232147,206.972076 
	C161.245987,208.626419 163.108231,210.265289 164.030975,211.966263 
	C164.030975,211.966263 164.088730,211.869339 164.136414,212.618973 
	C165.291382,215.087143 166.077301,219.385834 167.665329,219.706024 
	C174.469208,221.077774 172.050003,225.637100 172.014969,229.525940 
	C171.992493,232.020660 171.633347,234.663132 172.334946,236.961655 
	C172.818848,238.546982 174.859344,239.657166 176.319992,241.508133 
	C176.259964,241.860931 176.199921,242.213745 176.170929,243.113525 
	C176.384125,243.394180 176.597321,243.674835 176.939926,244.738281 
	C177.003662,246.057709 177.067398,247.377136 177.049271,249.558685 
	C178.276733,252.868668 179.504211,256.178650 180.653900,259.278900 
	C179.789246,259.976837 177.209930,261.198761 177.310593,262.131348 
	C177.680984,265.562347 180.388702,264.281158 182.668503,264.157501 
	C184.323227,264.067749 186.030365,264.944489 188.075241,265.485870 
	C187.456299,266.592590 186.940674,267.119873 186.882156,267.693817 
	C186.713272,269.350037 186.188080,272.221344 186.766556,272.482727 
	C189.099518,273.536926 191.561203,273.519012 192.798569,270.307007 
	C196.014450,261.959137 198.756378,261.043579 206.533066,265.975677 
	C207.312485,264.863312 208.852859,263.676025 208.784088,262.590698 
	C208.460052,257.476166 211.630081,256.874329 215.696609,256.442139 
	C216.014282,256.118134 216.331940,255.794144 217.204727,256.226288 
	C221.412247,256.804504 225.617279,257.813293 229.828003,257.837524 
	C233.881454,257.860901 237.966080,257.005371 241.989090,256.272797 
	C244.941238,255.735260 247.798416,254.695816 250.731171,254.025528 
	C252.793945,253.554092 254.912613,253.327164 257.805542,252.993210 
	C258.871216,252.996948 259.936890,253.000702 261.377228,253.540833 
	C262.620209,254.309799 263.863220,255.078751 265.748413,255.558411 
	C271.164307,251.750061 281.509460,251.892517 286.959351,256.220245 
	C286.959351,254.250839 286.959686,252.651627 286.959290,251.052429 
	C286.951691,220.448410 286.948914,189.844376 286.934021,159.240356 
	C286.927521,145.908371 286.916168,145.908371 273.369690,145.990082 
	C266.469971,146.031693 265.467865,146.978592 264.198822,154.134018 
	C261.265533,156.370422 261.600769,159.104431 263.000610,162.859665 
M324.857117,244.051407 
	C324.924194,238.725235 324.598633,233.359146 325.135254,228.080719 
	C326.496246,214.693741 327.794891,213.844864 337.629578,211.072083 
	C337.629578,206.730942 337.629578,202.316788 337.629578,197.983612 
	C327.159698,194.898239 325.989319,193.219437 325.695221,182.017014 
	C325.538269,176.038681 325.803223,169.930908 324.618347,164.139221 
	C323.817993,160.227142 321.634735,155.766510 318.630493,153.316315 
	C313.019165,148.739838 305.844177,148.454224 298.433197,149.438889 
	C298.433197,153.891373 298.433197,158.127747 298.433197,162.312805 
	C309.848206,165.137817 309.767456,165.139755 310.057495,177.259583 
	C310.299164,187.355713 309.705139,197.814423 320.352356,204.522736 
	C313.922394,208.255112 311.659393,213.825607 310.993988,220.179169 
	C310.510529,224.795700 310.128540,229.439194 310.038330,234.077225 
	C309.840027,244.272415 309.350433,244.927109 299.300568,246.292862 
	C299.023987,246.330460 298.787384,246.662277 298.490845,246.888397 
	C298.490845,251.106033 298.490845,255.337173 298.490845,259.502777 
	C312.385040,261.699738 323.257111,257.340393 324.857117,244.051407 
M299.826385,316.666473 
	C301.377380,316.045776 304.191467,315.564362 304.277740,314.782104 
	C304.915100,309.004272 309.303009,309.171936 313.295807,308.339691 
	C317.409485,307.482300 320.058472,308.778748 321.115967,312.893127 
	C321.972260,316.224579 324.039581,317.445892 327.391785,316.976501 
	C328.964447,316.756287 330.667664,317.192902 332.164429,316.787842 
	C333.500366,316.426270 334.633667,315.316071 335.856384,314.536255 
	C334.822632,313.697113 333.773682,312.127655 332.757843,312.148804 
	C328.930267,312.228455 326.906097,310.082031 325.554626,307.046631 
	C322.337616,299.821106 319.312592,292.509766 316.065460,285.298218 
	C315.518890,284.084412 314.249603,283.196045 313.314240,282.157318 
	C312.348450,283.189087 310.974609,284.056580 310.482483,285.279022 
	C307.052643,293.798767 303.770050,302.378693 300.530975,310.973511 
	C299.914093,312.610413 299.700562,314.399353 299.826385,316.666473 
M262.642456,314.352692 
	C259.444458,310.956635 258.605774,308.097382 263.953705,305.810760 
	C264.829163,305.436401 265.468567,302.733185 265.062073,301.481323 
	C263.981384,298.153198 261.172760,297.103973 257.730621,296.680450 
	C252.711487,296.062897 247.168442,298.554047 244.975769,303.085968 
	C243.303574,306.542145 245.952606,314.222961 249.810654,317.104584 
	C252.020157,318.754883 259.377808,317.512909 262.642456,314.352692 
M225.983902,283.133484 
	C225.241608,282.226074 224.499313,281.318634 223.757019,280.411224 
	C223.170914,281.647064 222.098099,282.874298 222.076111,284.120087 
	C221.908722,293.606964 221.927460,303.097473 221.942413,312.586792 
	C221.944504,313.913147 222.242004,315.239044 222.402756,316.565155 
	C223.324997,316.450531 224.741852,316.656860 225.067459,316.155090 
	C225.765381,315.079559 226.011734,313.657928 226.241928,312.342834 
	C226.738373,309.506378 226.602112,306.422577 227.730301,303.887512 
	C228.349121,302.497040 231.308289,301.005035 232.674393,301.403320 
	C234.115021,301.823364 235.447571,304.317047 235.863617,306.126404 
	C236.409439,308.500153 235.702225,311.148102 236.149109,313.564331 
	C236.377914,314.801392 237.945938,315.790771 238.908707,316.892090 
	C239.603592,315.810791 240.812180,314.768463 240.897705,313.640900 
	C241.161362,310.164398 241.062012,306.653809 240.980118,303.159363 
	C240.886429,299.161896 238.755432,296.925568 234.750031,297.064636 
	C232.366669,297.147430 230.005234,297.862122 226.385895,298.519379 
	C226.257935,293.712341 226.128723,288.858582 225.983902,283.133484 
M181.002441,304.489532 
	C181.002701,300.659943 181.160049,296.821991 180.956635,293.003235 
	C180.773163,289.559052 182.361069,288.338531 185.564102,287.900452 
	C187.110840,287.688873 188.502060,286.340210 189.963684,285.506409 
	C188.287552,284.339813 186.704071,282.373077 184.916824,282.166168 
	C180.644958,281.671600 176.247971,281.716949 171.962433,282.148834 
	C170.261703,282.320251 168.722229,284.091583 167.109329,285.134491 
	C168.643127,286.087952 170.148575,287.786530 171.716415,287.846222 
	C175.457764,287.988708 176.100220,289.895844 176.037033,293.014008 
	C175.919006,298.839233 175.983917,304.668701 176.018570,310.496124 
	C176.026413,311.815643 175.903687,313.281158 176.425461,314.409180 
	C176.893951,315.421997 178.165680,316.063232 179.083069,316.868378 
	C179.720108,315.902069 180.814148,314.977356 180.906662,313.961456 
	C181.162308,311.153900 180.999680,308.308319 181.002441,304.489532 
M193.140457,308.981445 
	C195.727905,316.362061 198.816925,318.145294 206.735031,316.902924 
	C208.153763,316.680359 209.703079,316.250214 211.016190,316.591949 
	C214.762329,317.566803 215.768753,314.807068 215.764893,312.519745 
	C215.756393,307.481873 214.968704,302.445343 214.513885,297.567902 
	C210.823822,297.366547 207.443497,297.106232 204.058548,297.012970 
	C196.697174,296.810150 193.071625,300.519501 193.140457,308.981445 
M270.030090,299.086517 
	C270.021454,303.918213 269.888031,308.755341 270.096649,313.577637 
	C270.145508,314.707336 271.352448,315.786987 272.026581,316.889648 
	C273.010986,315.811676 274.206573,314.852112 274.901978,313.612061 
	C275.330200,312.848389 275.024261,311.655731 274.997223,310.657043 
	C274.873352,306.079773 276.603210,302.710449 280.976013,300.782166 
	C281.907471,300.371460 282.459259,299.099731 283.518738,297.823944 
	C278.537415,297.823944 274.481049,297.821259 270.424744,297.841675 
	C270.335876,297.842133 270.248352,298.106720 270.030090,299.086517 
M276.219391,348.119141 
	C276.619873,349.536560 277.020355,350.953949 277.420837,352.371368 
	C277.797333,352.213806 278.173828,352.056213 278.550323,351.898651 
	C278.461792,351.048981 278.373260,350.199310 278.394226,350.400482 
	C281.137482,349.341187 283.738861,349.026733 285.116364,347.561615 
	C286.031464,346.588257 285.822266,342.716644 285.029175,342.320892 
	C282.572296,341.094940 279.595398,340.911102 276.221710,340.195831 
	C276.221710,343.399109 276.221710,345.354248 276.219391,348.119141 
M201.377625,346.824036 
	C201.529419,344.059357 202.802002,340.486176 201.542221,338.739716 
	C200.051437,336.673096 196.426682,336.017395 193.604843,335.144958 
	C193.024002,334.965393 191.204605,336.481812 191.152176,337.293732 
	C190.892502,341.316528 191.033829,345.365204 191.033829,350.321381 
	C194.980652,349.135956 197.897812,348.259766 201.377625,346.824036 
M268.980103,341.788849 
	C268.230682,341.479034 267.340729,340.745117 266.757904,340.938202 
	C264.942780,341.539612 262.509735,342.071381 261.726410,343.438232 
	C261.069427,344.584595 261.846130,347.592651 262.984009,348.441650 
	C264.175354,349.330536 267.483124,349.361755 268.202148,348.452393 
	C269.352203,346.997864 269.128784,344.457397 268.980103,341.788849 
M238.420349,342.110382 
	C236.206070,345.107483 236.206924,348.047272 240.029236,349.194580 
	C246.864014,351.246124 242.871399,344.133270 245.780319,342.695587 
	C245.607605,342.126648 245.434891,341.557678 245.262177,340.988708 
	C243.157471,341.186920 241.052750,341.385132 238.420349,342.110382 
M297.092834,349.064911 
	C298.164276,347.147247 299.804016,345.293091 300.028931,343.280853 
	C300.119537,342.470215 297.036987,340.449860 295.535156,340.578156 
	C294.261353,340.687042 292.537842,342.940918 292.158936,344.520508 
	C291.445435,347.494568 293.161102,349.166199 297.092834,349.064911 
M209.045670,346.054077 
	C209.776230,349.305298 212.303497,350.207672 214.600494,348.739899 
	C216.076218,347.796936 216.377197,345.015503 217.204742,343.058167 
	C215.337677,342.393463 213.416962,341.136810 211.624863,341.299225 
	C210.643066,341.388214 209.878433,343.873352 209.045670,346.054077 
M223.668655,343.785339 
	C224.814056,345.470367 225.959442,347.155426 227.565735,349.518524 
	C229.245468,346.206848 230.510315,343.713165 231.728561,341.311340 
	C228.630829,341.080597 226.759018,340.739532 224.938797,340.919708 
	C224.337097,340.979279 223.868439,342.382904 223.668655,343.785339 
M251.999207,346.100494 
	C252.390091,347.062653 252.780960,348.024811 253.171829,348.986969 
	C253.663925,348.857300 254.156021,348.727600 254.648117,348.597900 
	C254.938904,343.790649 255.814331,338.951538 254.106949,334.253265 
	C253.401077,334.255798 252.695206,334.258331 251.989334,334.260864 
	C251.989334,337.905792 251.989334,341.550751 251.999207,346.100494 
z"/>
<path fill="#879DFC" opacity="1.000000" stroke="none" 
	d="
M218.084137,146.164551 
	C223.037277,146.159988 227.990417,146.155426 233.599396,146.500000 
	C235.167480,149.899170 236.079727,152.949188 236.991974,155.999207 
	C236.961563,156.444885 236.931152,156.890564 236.895874,158.134705 
	C236.891022,191.078293 236.891022,223.223450 236.891022,255.970749 
	C230.488846,251.904984 220.452820,251.962372 216.649597,255.470154 
	C216.331940,255.794144 216.014282,256.118134 215.485443,256.207458 
	C215.120331,253.314346 214.966370,250.655899 214.869720,247.667191 
	C214.890289,246.893051 214.853531,246.449158 214.883316,245.590729 
	C214.903625,243.780563 214.857376,242.384949 214.873856,240.525299 
	C214.897995,213.374207 214.859436,186.687134 214.885635,159.546173 
	C215.729446,154.718674 212.975815,149.488724 218.084137,146.164551 
z"/>
<path fill="#879DFB" opacity="1.000000" stroke="none" 
	d="
M264.893799,153.999115 
	C265.467865,146.978592 266.469971,146.031693 273.369690,145.990082 
	C286.916168,145.908371 286.927521,145.908371 286.934021,159.240356 
	C286.948914,189.844376 286.951691,220.448410 286.959290,251.052429 
	C286.959686,252.651627 286.959351,254.250839 286.959351,256.220245 
	C281.509460,251.892517 271.164307,251.750061 265.423767,255.247437 
	C265.034271,227.625046 264.969452,200.313660 264.959961,172.636398 
	C264.979065,169.173553 264.942780,166.076569 264.963013,162.534149 
	C264.977600,159.392166 264.935699,156.695648 264.893799,153.999115 
z"/>
<path fill="#8EBDD7" opacity="1.000000" stroke="none" 
	d="
M324.828003,244.494629 
	C323.257111,257.340393 312.385040,261.699738 298.490845,259.502777 
	C298.490845,255.337173 298.490845,251.106033 298.490845,246.888397 
	C298.787384,246.662277 299.023987,246.330460 299.300568,246.292862 
	C309.350433,244.927109 309.840027,244.272415 310.038330,234.077225 
	C310.128540,229.439194 310.510529,224.795700 310.993988,220.179169 
	C311.659393,213.825607 313.922394,208.255112 320.352356,204.522736 
	C309.705139,197.814423 310.299164,187.355713 310.057495,177.259583 
	C309.767456,165.139755 309.848206,165.137817 298.433197,162.312805 
	C298.433197,158.127747 298.433197,153.891373 298.433197,149.438889 
	C305.844177,148.454224 313.019165,148.739838 318.630493,153.316315 
	C321.634735,155.766510 323.817993,160.227142 324.618347,164.139221 
	C325.803223,169.930908 325.538269,176.038681 325.695221,182.017014 
	C325.989319,193.219437 327.159698,194.898239 337.629578,197.983612 
	C337.629578,202.316788 337.629578,206.730942 337.629578,211.072083 
	C327.794891,213.844864 326.496246,214.693741 325.135254,228.080719 
	C324.598633,233.359146 324.924194,238.725235 324.828003,244.494629 
z"/>
<path fill="#8DBDD7" opacity="1.000000" stroke="none" 
	d="
M176.148865,178.011749 
	C176.378387,175.264679 176.607910,172.517593 176.855881,169.134644 
	C176.874329,168.498749 176.806656,168.034363 176.806656,168.034363 
	C176.925385,166.394287 177.044113,164.754227 177.327026,162.544037 
	C177.706818,161.705688 177.802765,161.399994 177.779053,161.056808 
	C177.888809,160.622330 177.998550,160.187851 178.391525,159.202728 
	C183.318283,151.465881 193.335434,147.809036 202.740845,149.961395 
	C202.740845,154.159210 202.740845,158.390167 202.740845,162.622437 
	C200.467606,163.132980 198.245834,163.120514 196.663910,164.120377 
	C194.805084,165.295273 192.451996,167.183960 192.158112,169.053177 
	C191.339401,174.260376 191.474945,179.617599 191.156219,185.330750 
	C191.015793,187.412384 190.952835,189.078857 190.678802,190.964844 
	C190.381866,191.766418 190.296005,192.348480 190.113632,193.253952 
	C189.927643,194.017944 189.838150,194.458527 189.520615,195.136261 
	C186.778671,198.502411 184.264786,201.631393 181.493515,205.080734 
	C182.755966,205.989670 184.324936,207.119278 185.989899,208.445465 
	C186.278534,208.875061 186.520905,209.030624 186.903900,209.458817 
	C188.310471,213.660492 189.915329,217.443466 190.850052,221.385361 
	C191.593643,224.521194 191.518448,227.851181 191.789932,231.538849 
	C191.853668,234.655182 191.934235,237.327621 192.014969,240.371094 
	C193.369965,246.637817 198.950104,245.212997 202.714081,246.654999 
	C202.714081,251.140121 202.714081,255.352783 202.714081,259.732117 
	C191.924347,260.601013 182.403214,259.579498 177.131134,248.696564 
	C177.067398,247.377136 177.003662,246.057709 176.861511,244.078201 
	C176.568695,243.134262 176.354294,242.850403 176.139893,242.566544 
	C176.199921,242.213745 176.259964,241.860931 176.273560,240.777832 
	C176.170227,234.723572 176.281235,229.391281 176.017731,224.077591 
	C175.606171,215.777557 172.082581,212.298676 164.088730,211.869339 
	C164.088730,211.869339 164.030975,211.966263 164.063217,211.482346 
	C164.073166,208.345993 164.231995,205.676498 163.983917,203.045349 
	C163.653992,199.545685 164.784546,198.049500 168.387558,196.777771 
	C171.155914,195.800659 173.986420,192.606613 175.034332,189.753815 
	C176.345306,186.184875 175.859207,181.955841 176.148865,178.011749 
z"/>
<path fill="#F8F5EC" opacity="1.000000" stroke="none" 
	d="
M261.002563,253.004440 
	C259.936890,253.000702 258.871216,252.996948 257.120728,252.701477 
	C252.668991,252.102646 248.768585,251.040390 245.168518,251.676880 
	C240.521683,252.498505 240.476273,250.017502 240.517334,247.026993 
	C240.607895,240.430603 240.943008,233.836533 240.974014,227.240570 
	C241.046005,211.923355 241.118439,196.603973 240.917297,181.289078 
	C240.862396,177.107910 241.158905,173.453293 244.999222,170.998123 
	C248.029434,170.997635 251.059662,170.997147 254.907578,171.001923 
	C257.814789,172.005814 259.904266,173.004425 261.994446,174.471527 
	C261.996399,198.863144 262.022461,222.786392 261.955597,246.709351 
	C261.949738,248.808594 261.334686,250.906113 261.002563,253.004440 
z"/>
<path fill="#FBFCFB" opacity="1.000000" stroke="none" 
	d="
M191.233673,184.915588 
	C191.474945,179.617599 191.339401,174.260376 192.158112,169.053177 
	C192.451996,167.183960 194.805084,165.295273 196.663910,164.120377 
	C198.245834,163.120514 200.467606,163.132980 202.740845,162.622437 
	C202.740845,158.390167 202.740845,154.159210 202.740845,149.961395 
	C193.335434,147.809036 183.318283,151.465881 178.424622,158.867798 
	C177.861206,155.007828 177.385132,150.931244 177.407135,146.857376 
	C177.410492,146.233643 179.725098,145.069672 180.950470,145.096100 
	C188.199509,145.252304 195.487671,145.317963 202.666718,146.197418 
	C205.792282,146.580322 208.689682,148.825607 212.428665,150.569168 
	C211.863281,145.530121 213.572784,143.932541 217.851349,145.862640 
	C212.975815,149.488724 215.729446,154.718674 214.523102,159.448639 
	C213.397812,157.542755 212.699783,155.280518 212.001770,153.018265 
	C212.209045,153.542542 212.416306,154.066833 212.623566,154.591110 
	C210.328735,155.893219 208.033890,157.195312 205.739044,158.497406 
	C211.899200,156.973206 210.948730,161.237656 210.956787,164.053970 
	C211.030167,189.702469 210.999954,215.351288 210.603302,240.909286 
	C209.804398,239.154037 209.061584,237.491302 209.052765,235.824692 
	C208.965515,219.358780 208.877045,202.890732 209.079102,186.426849 
	C209.135635,181.820679 209.071640,177.816681 203.616928,176.452988 
	C203.483459,176.419632 203.480499,175.864227 203.401260,175.476990 
	C203.705704,175.144760 203.969788,174.597336 204.376068,174.454559 
	C207.403503,173.390564 209.202682,171.004166 207.240692,168.517395 
	C206.296936,167.321243 202.549240,167.753693 200.302536,168.337936 
	C198.175003,168.891174 196.349854,170.607224 194.391724,171.811890 
	C194.800629,171.958496 195.209534,172.105103 195.618439,172.251709 
	C194.156845,176.472992 192.695251,180.694290 191.233673,184.915588 
z"/>
<path fill="#FBFCFB" opacity="1.000000" stroke="none" 
	d="
M244.778061,170.727386 
	C241.158905,173.453293 240.862396,177.107910 240.917297,181.289078 
	C241.118439,196.603973 241.046005,211.923355 240.974014,227.240570 
	C240.943008,233.836533 240.607895,240.430603 240.517334,247.026993 
	C240.476273,250.017502 240.521683,252.498505 245.168518,251.676880 
	C248.768585,251.040390 252.668991,252.102646 256.721100,252.700409 
	C254.912613,253.327164 252.793945,253.554092 250.731171,254.025528 
	C247.798416,254.695816 244.941238,255.735260 241.989090,256.272797 
	C237.966080,257.005371 233.881454,257.860901 229.828003,257.837524 
	C225.617279,257.813293 221.412247,256.804504 216.927170,255.848236 
	C220.452820,251.962372 230.488846,251.904984 236.891022,255.970749 
	C236.891022,223.223450 236.891022,191.078293 236.944733,158.467010 
	C238.117233,159.415787 240.496201,161.457886 240.153915,162.145584 
	C237.598175,167.280533 240.438141,169.110611 244.778061,170.727386 
z"/>
<path fill="#F8F8F2" opacity="1.000000" stroke="none" 
	d="
M299.563660,316.392303 
	C299.700562,314.399353 299.914093,312.610413 300.530975,310.973511 
	C303.770050,302.378693 307.052643,293.798767 310.482483,285.279022 
	C310.974609,284.056580 312.348450,283.189087 313.314240,282.157318 
	C314.249603,283.196045 315.518890,284.084412 316.065460,285.298218 
	C319.312592,292.509766 322.337616,299.821106 325.554626,307.046631 
	C326.906097,310.082031 328.930267,312.228455 332.757843,312.148804 
	C333.773682,312.127655 334.822632,313.697113 335.856384,314.536255 
	C334.633667,315.316071 333.500366,316.426270 332.164429,316.787842 
	C330.667664,317.192902 328.964447,316.756287 327.391785,316.976501 
	C324.039581,317.445892 321.972260,316.224579 321.115967,312.893127 
	C320.058472,308.778748 317.409485,307.482300 313.295807,308.339691 
	C309.303009,309.171936 304.915100,309.004272 304.277740,314.782104 
	C304.191467,315.564362 301.377380,316.045776 299.563660,316.392303 
z"/>
<path fill="#FBFCFB" opacity="1.000000" stroke="none" 
	d="
M177.090210,249.127625 
	C182.403214,259.579498 191.924347,260.601013 202.714081,259.732117 
	C202.714081,255.352783 202.714081,251.140121 202.714081,246.654999 
	C198.950104,245.212997 193.369965,246.637817 192.387039,240.412354 
	C196.524673,241.350143 200.391235,242.385666 204.022247,243.963318 
	C206.630920,245.096786 208.925018,246.954254 211.359451,248.488739 
	C211.182022,248.882004 211.004593,249.275253 210.827164,249.668518 
	C212.155579,249.111496 213.483994,248.554474 214.812408,247.997437 
	C214.966370,250.655899 215.120331,253.314346 215.367294,256.404236 
	C211.630081,256.874329 208.460052,257.476166 208.784088,262.590698 
	C208.852859,263.676025 207.312485,264.863312 206.533066,265.975677 
	C198.756378,261.043579 196.014450,261.959137 192.798569,270.307007 
	C191.561203,273.519012 189.099518,273.536926 186.766556,272.482727 
	C186.188080,272.221344 186.713272,269.350037 186.882156,267.693817 
	C186.940674,267.119873 187.456299,266.592590 188.075241,265.485870 
	C186.030365,264.944489 184.323227,264.067749 182.668503,264.157501 
	C180.388702,264.281158 177.680984,265.562347 177.310593,262.131348 
	C177.209930,261.198761 179.789246,259.976837 180.653900,259.278900 
	C179.504211,256.178650 178.276733,252.868668 177.090210,249.127625 
z"/>
<path fill="#F8F8F2" opacity="1.000000" stroke="none" 
	d="
M262.502930,314.669189 
	C259.377808,317.512909 252.020157,318.754883 249.810654,317.104584 
	C245.952606,314.222961 243.303574,306.542145 244.975769,303.085968 
	C247.168442,298.554047 252.711487,296.062897 257.730621,296.680450 
	C261.172760,297.103973 263.981384,298.153198 265.062073,301.481323 
	C265.468567,302.733185 264.829163,305.436401 263.953705,305.810760 
	C258.605774,308.097382 259.444458,310.956635 262.502930,314.669189 
z"/>
<path fill="#F7F6F0" opacity="1.000000" stroke="none" 
	d="
M225.991699,283.569153 
	C226.128723,288.858582 226.257935,293.712341 226.385895,298.519379 
	C230.005234,297.862122 232.366669,297.147430 234.750031,297.064636 
	C238.755432,296.925568 240.886429,299.161896 240.980118,303.159363 
	C241.062012,306.653809 241.161362,310.164398 240.897705,313.640900 
	C240.812180,314.768463 239.603592,315.810791 238.908691,316.892090 
	C237.945938,315.790771 236.377914,314.801392 236.149109,313.564331 
	C235.702225,311.148102 236.409439,308.500153 235.863617,306.126404 
	C235.447571,304.317047 234.115021,301.823364 232.674393,301.403320 
	C231.308289,301.005035 228.349121,302.497040 227.730301,303.887512 
	C226.602112,306.422577 226.738373,309.506378 226.241928,312.342834 
	C226.011734,313.657928 225.765381,315.079559 225.067459,316.155090 
	C224.741852,316.656860 223.324997,316.450531 222.402740,316.565155 
	C222.242004,315.239044 221.944504,313.913147 221.942413,312.586792 
	C221.927460,303.097473 221.908722,293.606964 222.076111,284.120087 
	C222.098099,282.874298 223.170914,281.647064 223.757019,280.411224 
	C224.499313,281.318634 225.241608,282.226074 225.991699,283.569153 
z"/>
<path fill="#F7F6F0" opacity="1.000000" stroke="none" 
	d="
M181.002441,304.983643 
	C180.999680,308.308319 181.162308,311.153900 180.906662,313.961456 
	C180.814148,314.977356 179.720108,315.902069 179.083069,316.868378 
	C178.165680,316.063232 176.893951,315.421997 176.425461,314.409180 
	C175.903687,313.281158 176.026413,311.815643 176.018570,310.496124 
	C175.983917,304.668701 175.919006,298.839233 176.037033,293.014008 
	C176.100220,289.895844 175.457764,287.988708 171.716415,287.846222 
	C170.148575,287.786530 168.643127,286.087952 167.109329,285.134491 
	C168.722229,284.091583 170.261703,282.320251 171.962433,282.148834 
	C176.247971,281.716949 180.644958,281.671600 184.916824,282.166168 
	C186.704071,282.373077 188.287552,284.339813 189.963684,285.506409 
	C188.502060,286.340210 187.110840,287.688873 185.564102,287.900452 
	C182.361069,288.338531 180.773163,289.559052 180.956635,293.003235 
	C181.160049,296.821991 181.002701,300.659943 181.002441,304.983643 
z"/>
<path fill="#F7F6F0" opacity="1.000000" stroke="none" 
	d="
M193.086823,308.578308 
	C193.071625,300.519501 196.697174,296.810150 204.058548,297.012970 
	C207.443497,297.106232 210.823822,297.366547 214.513885,297.567902 
	C214.968704,302.445343 215.756393,307.481873 215.764893,312.519745 
	C215.768753,314.807068 214.762329,317.566803 211.016190,316.591949 
	C209.703079,316.250214 208.153763,316.680359 206.735031,316.902924 
	C198.816925,318.145294 195.727905,316.362061 193.086823,308.578308 
M202.143173,312.876495 
	C203.297165,312.917389 204.452957,312.930267 205.604828,313.004242 
	C209.485733,313.253479 210.737762,310.279510 210.464813,307.629791 
	C210.195663,305.017090 210.675995,300.890717 205.729401,300.946411 
	C202.729736,300.980194 200.300278,301.299835 198.765778,304.393646 
	C196.898926,308.157593 199.455078,310.203186 202.143173,312.876495 
z"/>
<path fill="#F9FEFC" opacity="1.000000" stroke="none" 
	d="
M261.189880,253.272644 
	C261.334686,250.906113 261.949738,248.808594 261.955597,246.709351 
	C262.022461,222.786392 261.996399,198.863144 262.282379,174.349792 
	C263.347931,173.507156 264.126282,173.254715 264.904602,173.002258 
	C264.969452,200.313660 265.034271,227.625046 265.102661,255.392075 
	C263.863220,255.078751 262.620209,254.309799 261.189880,253.272644 
z"/>
<path fill="#FBFCFB" opacity="1.000000" stroke="none" 
	d="
M164.112579,212.244156 
	C172.082581,212.298676 175.606171,215.777557 176.017731,224.077591 
	C176.281235,229.391281 176.170227,234.723572 176.215668,240.513611 
	C174.859344,239.657166 172.818848,238.546982 172.334946,236.961655 
	C171.633347,234.663132 171.992493,232.020660 172.014969,229.525940 
	C172.050003,225.637100 174.469208,221.077774 167.665329,219.706024 
	C166.077301,219.385834 165.291382,215.087143 164.112579,212.244156 
z"/>
<path fill="#F8F8F2" opacity="1.000000" stroke="none" 
	d="
M270.095154,298.667297 
	C270.248352,298.106720 270.335876,297.842133 270.424744,297.841675 
	C274.481049,297.821259 278.537415,297.823944 283.518738,297.823944 
	C282.459259,299.099731 281.907471,300.371460 280.976013,300.782166 
	C276.603210,302.710449 274.873352,306.079773 274.997223,310.657043 
	C275.024261,311.655731 275.330200,312.848389 274.901978,313.612061 
	C274.206573,314.852112 273.010986,315.811676 272.026581,316.889648 
	C271.352448,315.786987 270.145508,314.707336 270.096649,313.577637 
	C269.888031,308.755341 270.021454,303.918213 270.095154,298.667297 
z"/>
<path fill="#FBFCFB" opacity="1.000000" stroke="none" 
	d="
M175.755676,178.012268 
	C175.859207,181.955841 176.345306,186.184875 175.034332,189.753815 
	C173.986420,192.606613 171.155914,195.800659 168.387558,196.777771 
	C164.784546,198.049500 163.653992,199.545685 163.983917,203.045349 
	C164.231995,205.676498 164.073166,208.345993 164.112457,211.454819 
	C163.108231,210.265289 161.245987,208.626419 161.232147,206.972076 
	C161.198059,202.901886 162.014008,198.824585 162.493179,194.750854 
	C170.797333,195.197495 174.580887,188.883011 170.992615,179.590347 
	C172.452316,179.063385 173.907410,178.538101 175.755676,178.012268 
z"/>
<path fill="#ACC5D0" opacity="1.000000" stroke="none" 
	d="
M276.220551,347.714264 
	C276.221710,345.354248 276.221710,343.399109 276.221710,340.195831 
	C279.595398,340.911102 282.572296,341.094940 285.029175,342.320892 
	C285.822266,342.716644 286.031464,346.588257 285.116364,347.561615 
	C283.738861,349.026733 281.137482,349.341187 278.394226,350.400482 
	C278.373260,350.199310 278.461792,351.048981 278.550323,351.898651 
	C278.173828,352.056213 277.797333,352.213806 277.420837,352.371368 
	C277.020355,350.953949 276.619873,349.536560 276.220551,347.714264 
z"/>
<path fill="#ACC5D0" opacity="1.000000" stroke="none" 
	d="
M201.096298,347.103821 
	C197.897812,348.259766 194.980652,349.135956 191.033829,350.321381 
	C191.033829,345.365204 190.892502,341.316528 191.152176,337.293732 
	C191.204605,336.481812 193.024002,334.965393 193.604843,335.144958 
	C196.426682,336.017395 200.051437,336.673096 201.542221,338.739716 
	C202.802002,340.486176 201.529419,344.059357 201.096298,347.103821 
M196.986786,346.808014 
	C200.377808,345.496002 200.937103,342.549072 199.593292,339.989807 
	C198.730972,338.347565 196.034439,337.668427 193.057892,335.904327 
	C193.057892,339.666870 192.693359,341.853088 193.192505,343.820190 
	C193.499390,345.029480 195.126740,345.903687 196.986786,346.808014 
z"/>
<path fill="#ACC5D0" opacity="1.000000" stroke="none" 
	d="
M269.233032,342.082397 
	C269.128784,344.457397 269.352203,346.997864 268.202148,348.452393 
	C267.483124,349.361755 264.175354,349.330536 262.984009,348.441650 
	C261.846130,347.592651 261.069427,344.584595 261.726410,343.438232 
	C262.509735,342.071381 264.942780,341.539612 266.757904,340.938202 
	C267.340729,340.745117 268.230682,341.479034 269.233032,342.082397 
z"/>
<path fill="#ACC5D0" opacity="1.000000" stroke="none" 
	d="
M238.684204,341.846863 
	C241.052750,341.385132 243.157471,341.186920 245.262177,340.988708 
	C245.434891,341.557678 245.607605,342.126648 245.780319,342.695587 
	C242.871399,344.133270 246.864014,351.246124 240.029236,349.194580 
	C236.206924,348.047272 236.206070,345.107483 238.684204,341.846863 
z"/>
<path fill="#ACC5D0" opacity="1.000000" stroke="none" 
	d="
M296.706665,349.074219 
	C293.161102,349.166199 291.445435,347.494568 292.158936,344.520508 
	C292.537842,342.940918 294.261353,340.687042 295.535156,340.578156 
	C297.036987,340.449860 300.119537,342.470215 300.028931,343.280853 
	C299.804016,345.293091 298.164276,347.147247 296.706665,349.074219 
z"/>
<path fill="#ACC5D0" opacity="1.000000" stroke="none" 
	d="
M209.030762,345.666016 
	C209.878433,343.873352 210.643066,341.388214 211.624863,341.299225 
	C213.416962,341.136810 215.337677,342.393463 217.204742,343.058167 
	C216.377197,345.015503 216.076218,347.796936 214.600494,348.739899 
	C212.303497,350.207672 209.776230,349.305298 209.030762,345.666016 
z"/>
<path fill="#FBFCFB" opacity="1.000000" stroke="none" 
	d="
M264.959961,172.636398 
	C264.126282,173.254715 263.347931,173.507156 262.281677,173.881332 
	C259.904266,173.004425 257.814789,172.005814 255.361572,171.000244 
	C256.490936,166.554047 258.885193,166.158463 263.000610,170.706421 
	C263.000610,167.262939 263.000610,165.061295 263.250031,162.531219 
	C263.968475,162.461716 264.437500,162.720657 264.906525,162.979584 
	C264.942780,166.076569 264.979065,169.173553 264.959961,172.636398 
z"/>
<path fill="#FBFCFB" opacity="1.000000" stroke="none" 
	d="
M237.404144,155.997360 
	C236.079727,152.949188 235.167480,149.899170 234.051514,146.569946 
	C235.628586,145.996948 238.845032,145.171814 238.963943,145.493088 
	C239.951950,148.162613 240.573898,151.027649 240.796768,153.873505 
	C240.845764,154.499222 238.863297,155.283997 237.404144,155.997360 
z"/>
<path fill="#ACC5D0" opacity="1.000000" stroke="none" 
	d="
M223.503799,343.478668 
	C223.868439,342.382904 224.337097,340.979279 224.938797,340.919708 
	C226.759018,340.739532 228.630829,341.080597 231.728561,341.311340 
	C230.510315,343.713165 229.245468,346.206848 227.565735,349.518524 
	C225.959442,347.155426 224.814056,345.470367 223.503799,343.478668 
z"/>
<path fill="#D2DFE6" opacity="1.000000" stroke="none" 
	d="
M251.994263,345.648071 
	C251.989334,341.550751 251.989334,337.905792 251.989334,334.260864 
	C252.695206,334.258331 253.401077,334.255798 254.106949,334.253265 
	C255.814331,338.951538 254.938904,343.790649 254.648117,348.597900 
	C254.156021,348.727600 253.663925,348.857300 253.171829,348.986969 
	C252.780960,348.024811 252.390091,347.062653 251.994263,345.648071 
z"/>
<path fill="#F9FEFC" opacity="1.000000" stroke="none" 
	d="
M264.963013,162.534149 
	C264.437500,162.720657 263.968475,162.461716 263.250336,162.101700 
	C261.600769,159.104431 261.265533,156.370422 264.546326,154.066559 
	C264.935699,156.695648 264.977600,159.392166 264.963013,162.534149 
z"/>
<path fill="#FBFCFB" opacity="1.000000" stroke="none" 
	d="
M176.155411,242.840027 
	C176.354294,242.850403 176.568695,243.134262 176.796799,243.686813 
	C176.597321,243.674835 176.384125,243.394180 176.155411,242.840027 
z"/>
<path fill="#FBFCFB" opacity="1.000000" stroke="none" 
	d="
M176.675735,168.118057 
	C176.806656,168.034363 176.874329,168.498749 176.807938,168.723633 
	C176.413162,168.749847 176.347580,168.500931 176.675735,168.118057 
z"/>
<path fill="#FBFCFB" opacity="1.000000" stroke="none" 
	d="
M177.586121,161.208740 
	C177.802765,161.399994 177.706818,161.705688 177.301514,162.134003 
	C177.081741,161.945511 177.175522,161.634369 177.586121,161.208740 
z"/>
<path fill="#FFFFFF" opacity="1.000000" stroke="none" 
	d="
M214.869736,247.667206 
	C213.483994,248.554474 212.155579,249.111496 210.827164,249.668518 
	C211.004593,249.275253 211.182022,248.882004 211.359451,248.488739 
	C208.925018,246.954254 206.630920,245.096786 204.022247,243.963318 
	C200.391235,242.385666 196.524673,241.350143 192.386871,240.041321 
	C191.934235,237.327621 191.853668,234.655182 192.115997,231.271484 
	C192.458908,222.493835 192.458908,214.427399 192.458908,205.390701 
	C190.189163,206.885406 188.501083,207.997055 186.813019,209.108704 
	C186.520905,209.030624 186.278534,208.875061 186.024384,208.041061 
	C186.235550,206.097382 186.508240,204.754654 186.709457,203.763840 
	C188.943512,203.944550 190.521683,204.072205 192.099854,204.199860 
	C192.241562,202.177719 192.742599,200.090714 192.393433,198.157242 
	C192.175644,196.951324 190.674088,195.977249 189.748657,194.899124 
	C189.838150,194.458527 189.927643,194.017944 190.330200,193.048737 
	C190.725479,191.928513 190.807678,191.336929 190.889877,190.745331 
	C190.952835,189.078857 191.015793,187.412384 191.156204,185.330750 
	C192.695251,180.694290 194.156845,176.472992 195.618439,172.251709 
	C195.209534,172.105103 194.800629,171.958496 194.391724,171.811890 
	C196.349854,170.607224 198.175003,168.891174 200.302536,168.337936 
	C202.549240,167.753693 206.296936,167.321243 207.240692,168.517395 
	C209.202682,171.004166 207.403503,173.390564 204.376068,174.454559 
	C203.969788,174.597336 203.705704,175.144760 203.401260,175.476990 
	C203.480499,175.864227 203.483459,176.419632 203.616928,176.452988 
	C209.071640,177.816681 209.135635,181.820679 209.079102,186.426849 
	C208.877045,202.890732 208.965515,219.358780 209.052765,235.824692 
	C209.061584,237.491302 209.804398,239.154037 210.607178,241.270264 
	C212.277435,243.149734 213.547104,244.577499 214.816772,246.005264 
	C214.853531,246.449158 214.890289,246.893051 214.869736,247.667206 
z"/>
<path fill="#FFFFFF" opacity="1.000000" stroke="none" 
	d="
M211.000000,241.000000 
	C210.999954,215.351288 211.030167,189.702469 210.956787,164.053970 
	C210.948730,161.237656 211.899200,156.973206 205.739044,158.497406 
	C208.033890,157.195312 210.328735,155.893219 212.623566,154.591110 
	C212.416306,154.066833 212.209045,153.542542 212.001770,153.018265 
	C212.699783,155.280518 213.397812,157.542755 214.458344,159.902542 
	C214.859436,186.687134 214.897995,213.374207 214.494278,240.528717 
	C213.034653,240.997467 212.017334,240.998734 211.000000,241.000000 
z"/>
<path fill="#FBFCFB" opacity="1.000000" stroke="none" 
	d="
M211.003891,241.360992 
	C212.017334,240.998734 213.034653,240.997467 214.431564,240.992767 
	C214.857376,242.384949 214.903625,243.780563 214.883316,245.590729 
	C213.547104,244.577499 212.277435,243.149734 211.003891,241.360992 
z"/>
<path fill="#FBFCFB" opacity="1.000000" stroke="none" 
	d="
M186.903900,209.458801 
	C188.501083,207.997055 190.189163,206.885406 192.458908,205.390701 
	C192.458908,214.427399 192.458908,222.493835 192.132843,230.827606 
	C191.518448,227.851181 191.593643,224.521194 190.850052,221.385361 
	C189.915329,217.443466 188.310471,213.660492 186.903900,209.458801 
z"/>
<path fill="#FBFCFB" opacity="1.000000" stroke="none" 
	d="
M189.520615,195.136261 
	C190.674088,195.977249 192.175644,196.951324 192.393433,198.157242 
	C192.742599,200.090714 192.241562,202.177719 192.099854,204.199860 
	C190.521683,204.072205 188.943512,203.944550 186.709457,203.763840 
	C186.508240,204.754654 186.235550,206.097382 185.928391,207.844498 
	C184.324936,207.119278 182.755966,205.989670 181.493515,205.080734 
	C184.264786,201.631393 186.778671,198.502411 189.520615,195.136261 
z"/>
<path fill="#FBFCFB" opacity="1.000000" stroke="none" 
	d="
M190.678802,190.964844 
	C190.807678,191.336929 190.725479,191.928513 190.426712,192.725342 
	C190.296005,192.348480 190.381866,191.766418 190.678802,190.964844 
z"/>
<path fill="#FFFFFF" opacity="1.000000" stroke="none" 
	d="
M201.770355,312.729004 
	C199.455078,310.203186 196.898926,308.157593 198.765778,304.393646 
	C200.300278,301.299835 202.729736,300.980194 205.729401,300.946411 
	C210.675995,300.890717 210.195663,305.017090 210.464813,307.629791 
	C210.737762,310.279510 209.485733,313.253479 205.604828,313.004242 
	C204.452957,312.930267 203.297165,312.917389 201.770355,312.729004 
z"/>
<path fill="#F9FEFC" opacity="1.000000" stroke="none" 
	d="
M196.573975,346.868164 
	C195.126740,345.903687 193.499390,345.029480 193.192505,343.820190 
	C192.693359,341.853088 193.057892,339.666870 193.057892,335.904327 
	C196.034439,337.668427 198.730972,338.347565 199.593292,339.989807 
	C200.937103,342.549072 200.377808,345.496002 196.573975,346.868164 
z"/>
</svg>